<?xml version="1.0" encoding="iso-8859-1"?>
<!-- Generator: Adobe Illustrator 19.0.0, SVG Export Plug-In . SVG Version: 6.00 Build 0)  -->
<svg version="1.1" id="Capa_1" xmlns="http://www.w3.org/2000/svg" xmlns:xlink="http://www.w3.org/1999/xlink" x="0px" y="0px"
	 viewBox="0 0 511.856 511.856" style="enable-background:new 0 0 511.856 511.856;" xml:space="preserve">
<g>
	<g>
		<path d="M498.456,259.312l-234.667-256c-4.032-4.416-11.691-4.416-15.723,0l-234.667,256c-2.859,3.115-3.605,7.616-1.899,11.499
			c1.707,3.883,5.547,6.379,9.771,6.379h53.333v224c0,5.888,4.779,10.667,10.667,10.667h106.667c5.888,0,10.667-4.779,10.667-10.667
			v-160h106.667v160c0,5.888,4.779,10.667,10.667,10.667h106.667c5.888,0,10.667-4.779,10.667-10.667v-224h53.333
			c4.224,0,8.064-2.496,9.749-6.379C502.061,266.928,501.315,262.427,498.456,259.312z M426.605,255.856
			c-5.888,0-10.667,4.779-10.667,10.667v224h-85.333v-160c0-5.888-4.779-10.667-10.667-10.667h-128
			c-5.888,0-10.667,4.779-10.667,10.667v160H95.939v-224c0-5.888-4.779-10.667-10.667-10.667H45.528L255.939,26.309l210.411,229.547
			H426.605z"/>
	</g>
</g>
<g>
</g>
<g>
</g>
<g>
</g>
<g>
</g>
<g>
</g>
<g>
</g>
<g>
</g>
<g>
</g>
<g>
</g>
<g>
</g>
<g>
</g>
<g>
</g>
<g>
</g>
<g>
</g>
<g>
</g>
</svg>
