<?xml version="1.0" encoding="iso-8859-1"?>
<!-- Generator: Adobe Illustrator 19.0.0, SVG Export Plug-In . SVG Version: 6.00 Build 0)  -->
<svg version="1.1" id="Capa_1" xmlns="http://www.w3.org/2000/svg" xmlns:xlink="http://www.w3.org/1999/xlink" x="0px" y="0px"
	 viewBox="0 0 490.667 490.667" style="enable-background:new 0 0 490.667 490.667;" xml:space="preserve">
<g>
	<g>
		<path d="M288,0h-85.333c-29.419,0-53.333,23.936-53.333,53.333v85.333c0,29.397,23.915,53.333,53.333,53.333H288
			c29.419,0,53.333-23.936,53.333-53.333V53.333C341.333,23.936,317.419,0,288,0z M320,138.667c0,17.643-14.357,32-32,32h-85.333
			c-17.643,0-32-14.357-32-32V53.333c0-17.643,14.357-32,32-32H288c17.643,0,32,14.357,32,32V138.667z"/>
	</g>
</g>
<g>
	<g>
		<path d="M270.933,384h-51.2C204.437,384,192,396.437,192,411.733v51.2c0,15.296,12.437,27.733,27.733,27.733h51.2
			c15.296,0,27.733-12.437,27.733-27.733v-51.2C298.667,396.437,286.229,384,270.933,384z M277.333,462.933
			c0,3.541-2.88,6.4-6.4,6.4h-51.2c-3.52,0-6.4-2.859-6.4-6.4v-51.2c0-3.541,2.88-6.4,6.4-6.4h51.2c3.52,0,6.4,2.859,6.4,6.4
			V462.933z"/>
	</g>
</g>
<g>
	<g>
		<path d="M462.933,384h-51.2C396.437,384,384,396.437,384,411.733v51.2c0,15.296,12.437,27.733,27.733,27.733h51.2
			c15.296,0,27.733-12.437,27.733-27.733v-51.2C490.667,396.437,478.229,384,462.933,384z M469.333,462.933
			c0,3.541-2.88,6.4-6.4,6.4h-51.2c-3.52,0-6.4-2.859-6.4-6.4v-51.2c0-3.541,2.88-6.4,6.4-6.4h51.2c3.52,0,6.4,2.859,6.4,6.4
			V462.933z"/>
	</g>
</g>
<g>
	<g>
		<path d="M78.933,384h-51.2C12.437,384,0,396.437,0,411.733v51.2c0,15.296,12.437,27.733,27.733,27.733h51.2
			c15.296,0,27.733-12.437,27.733-27.733v-51.2C106.667,396.437,94.229,384,78.933,384z M85.333,462.933c0,3.541-2.88,6.4-6.4,6.4
			h-51.2c-3.52,0-6.4-2.859-6.4-6.4v-51.2c0-3.541,2.88-6.4,6.4-6.4h51.2c3.52,0,6.4,2.859,6.4,6.4V462.933z"/>
	</g>
</g>
<g>
	<g>
		<path d="M245.333,213.333c-5.888,0-10.667,4.779-10.667,10.667v128c0,5.888,4.779,10.667,10.667,10.667S256,357.888,256,352V224
			C256,218.112,251.221,213.333,245.333,213.333z"/>
	</g>
</g>
<g>
	<g>
		<path d="M373.333,277.333h-256c-41.173,0-74.667,33.493-74.667,74.667c0,5.888,4.779,10.667,10.667,10.667S64,357.888,64,352
			c0-29.397,23.915-53.333,53.333-53.333h256c29.419,0,53.333,23.936,53.333,53.333c0,5.888,4.779,10.667,10.667,10.667
			c5.888,0,10.667-4.779,10.667-10.667C448,310.827,414.507,277.333,373.333,277.333z"/>
	</g>
</g>
<g>
</g>
<g>
</g>
<g>
</g>
<g>
</g>
<g>
</g>
<g>
</g>
<g>
</g>
<g>
</g>
<g>
</g>
<g>
</g>
<g>
</g>
<g>
</g>
<g>
</g>
<g>
</g>
<g>
</g>
</svg>
