<?xml version="1.0" encoding="iso-8859-1"?>
<!-- Generator: Adobe Illustrator 19.0.0, SVG Export Plug-In . SVG Version: 6.00 Build 0)  -->
<svg version="1.1" id="Capa_1" xmlns="http://www.w3.org/2000/svg" xmlns:xlink="http://www.w3.org/1999/xlink" x="0px" y="0px"
	 viewBox="0 0 490.667 490.667" style="enable-background:new 0 0 490.667 490.667;" xml:space="preserve">
<g>
	<g>
		<path d="M405.333,128h-320c-5.888,0-10.667,4.779-10.667,10.667v298.667c0,29.397,23.936,53.333,53.333,53.333h234.667
			c29.397,0,53.333-23.936,53.333-53.333V138.667C416,132.779,411.221,128,405.333,128z M394.667,437.333c0,17.643-14.357,32-32,32
			H128c-17.643,0-32-14.357-32-32v-288h298.667V437.333z"/>
	</g>
</g>
<g>
	<g>
		<path d="M426.667,42.667h-11.733C409.963,18.347,388.437,0,362.667,0H128c-25.771,0-47.296,18.347-52.267,42.667H64
			c-5.888,0-10.667,4.779-10.667,10.667V96c0,5.888,4.779,10.667,10.667,10.667h362.667c5.888,0,10.667-4.779,10.667-10.667V53.333
			C437.333,47.445,432.555,42.667,426.667,42.667z M416,85.333H74.667V64h10.667C91.221,64,96,59.221,96,53.333
			c0-17.643,14.357-32,32-32h234.667c17.643,0,32,14.357,32,32c0,5.888,4.779,10.667,10.667,10.667H416V85.333z"/>
	</g>
</g>
<g>
	<g>
		<path d="M149.333,192c-5.888,0-10.667,4.779-10.667,10.667V416c0,5.888,4.779,10.667,10.667,10.667S160,421.888,160,416V202.667
			C160,196.779,155.221,192,149.333,192z"/>
	</g>
</g>
<g>
	<g>
		<path d="M245.333,192c-5.888,0-10.667,4.779-10.667,10.667V416c0,5.888,4.779,10.667,10.667,10.667S256,421.888,256,416V202.667
			C256,196.779,251.221,192,245.333,192z"/>
	</g>
</g>
<g>
	<g>
		<path d="M341.333,192c-5.888,0-10.667,4.779-10.667,10.667V416c0,5.888,4.779,10.667,10.667,10.667
			c5.888,0,10.667-4.779,10.667-10.667V202.667C352,196.779,347.221,192,341.333,192z"/>
	</g>
</g>
<g>
</g>
<g>
</g>
<g>
</g>
<g>
</g>
<g>
</g>
<g>
</g>
<g>
</g>
<g>
</g>
<g>
</g>
<g>
</g>
<g>
</g>
<g>
</g>
<g>
</g>
<g>
</g>
<g>
</g>
</svg>
