<?xml version="1.0" encoding="iso-8859-1"?>
<!-- Generator: Adobe Illustrator 19.0.0, SVG Export Plug-In . SVG Version: 6.00 Build 0)  -->
<svg version="1.1" id="Capa_1" xmlns="http://www.w3.org/2000/svg" xmlns:xlink="http://www.w3.org/1999/xlink" x="0px" y="0px"
	 viewBox="0 0 512 512" style="enable-background:new 0 0 512 512;" xml:space="preserve">
<g>
	<g>
		<path d="M501.333,490.667h-480v-480C21.333,4.779,16.555,0,10.667,0S0,4.779,0,10.667v490.667C0,507.221,4.779,512,10.667,512
			h490.667c5.888,0,10.667-4.779,10.667-10.667C512,495.445,507.221,490.667,501.333,490.667z"/>
	</g>
</g>
<g>
	<g>
		<path d="M160,256H53.333c-5.888,0-10.667,4.779-10.667,10.667v192c0,5.888,4.779,10.667,10.667,10.667H160
			c5.888,0,10.667-4.779,10.667-10.667v-192C170.667,260.779,165.888,256,160,256z M149.333,448H64V277.333h85.333V448z"/>
	</g>
</g>
<g>
	<g>
		<path d="M330.667,128H224c-5.888,0-10.667,4.779-10.667,10.667v320c0,5.888,4.779,10.667,10.667,10.667h106.667
			c5.888,0,10.667-4.779,10.667-10.667v-320C341.333,132.779,336.555,128,330.667,128z M320,448h-85.333V149.333H320V448z"/>
	</g>
</g>
<g>
	<g>
		<path d="M501.333,0H394.667C388.779,0,384,4.779,384,10.667v448c0,5.888,4.779,10.667,10.667,10.667h106.667
			c5.888,0,10.667-4.779,10.667-10.667v-448C512,4.779,507.221,0,501.333,0z M490.667,448h-85.333V21.333h85.333V448z"/>
	</g>
</g>
<g>
</g>
<g>
</g>
<g>
</g>
<g>
</g>
<g>
</g>
<g>
</g>
<g>
</g>
<g>
</g>
<g>
</g>
<g>
</g>
<g>
</g>
<g>
</g>
<g>
</g>
<g>
</g>
<g>
</g>
</svg>
