<?xml version="1.0" encoding="iso-8859-1"?>
<!-- Generator: Adobe Illustrator 19.0.0, SVG Export Plug-In . SVG Version: 6.00 Build 0)  -->
<svg version="1.1" id="Capa_1" xmlns="http://www.w3.org/2000/svg" xmlns:xlink="http://www.w3.org/1999/xlink" x="0px" y="0px"
	 viewBox="0 0 512.009 512.009" style="enable-background:new 0 0 512.009 512.009;" xml:space="preserve">
<g>
	<g>
		<path d="M501.338,85.338H10.671c-5.888,0-10.667,4.779-10.667,10.667v362.667c0,29.397,23.936,53.333,53.333,53.333h405.333
			c29.397,0,53.333-23.936,53.333-53.333V96.004C512.004,90.116,507.226,85.338,501.338,85.338z M490.671,458.671
			c0,17.643-14.357,32-32,32H53.338c-17.643,0-32-14.357-32-32v-352h469.333V458.671z"/>
	</g>
</g>
<g>
	<g>
		<path d="M508.015,87.663L401.348,2.33c-1.899-1.493-4.245-2.325-6.677-2.325H117.338c-2.432,0-4.779,0.832-6.677,2.347
			L3.994,87.684c-4.587,3.691-5.333,10.389-1.664,14.997c3.691,4.565,10.389,5.333,15.019,1.664l103.723-83.008h269.867
			l103.744,83.008c1.963,1.557,4.331,2.325,6.656,2.325c3.115,0,6.229-1.365,8.341-4.011
			C513.348,98.052,512.602,91.354,508.015,87.663z"/>
	</g>
</g>
<g>
	<g>
		<path d="M330.671,170.671H181.338c-5.888,0-10.667,4.779-10.667,10.667v64c0,5.888,4.779,10.667,10.667,10.667h149.333
			c5.888,0,10.667-4.779,10.667-10.667v-64C341.338,175.45,336.559,170.671,330.671,170.671z M320.004,234.671h-128v-42.667h128
			V234.671z"/>
	</g>
</g>
<g>
</g>
<g>
</g>
<g>
</g>
<g>
</g>
<g>
</g>
<g>
</g>
<g>
</g>
<g>
</g>
<g>
</g>
<g>
</g>
<g>
</g>
<g>
</g>
<g>
</g>
<g>
</g>
<g>
</g>
</svg>
